<svg width="146" height="51" viewBox="0 0 146 51" fill="none" xmlns="http://www.w3.org/2000/svg">
<path d="M16.1733 5.99976L8 6.78221L9.25846 17.9934C10.673 17.5193 12.4263 17.1477 14.1136 17.1449C15.205 17.145 16.4341 17.264 17.5 17.4998L16.1733 5.99976Z" stroke="#FF6E67" stroke-width="2" stroke-linecap="round"/>
<path d="M34.1567 0.301306L9.66016 2.646L11.1648 18.5205C12.3216 18.2353 13.5079 18.0884 14.699 18.0831C18.1585 18.0835 21.5132 19.2769 24.2026 21.464C26.8921 23.6511 28.7534 26.6994 29.4758 30.0998L36.9128 29.3879L34.1567 0.301306Z" fill="#FF6E67"/>
<path d="M13.1172 12.1418L19.7582 11.5061L20.5012 19.3232C19.8579 19.0503 18.9683 18.9841 18.0674 18.7679C16.7399 18.5046 16.5554 18.4754 15.3443 18.3893C14.5682 18.3578 13.8918 18.3675 13.6186 18.3883L13.1172 12.1418Z" fill="white"/>
<path d="M12.7695 9.18164L32.1986 7.32183L32.247 7.8325L12.8179 9.6923L12.7695 9.18164Z" fill="white"/>
<path d="M12.8828 10.897L32.3588 9.03267L32.4072 9.54333L12.9312 11.4076L12.8828 10.897Z" fill="white"/>
<path d="M20.7227 11.6238L32.4975 10.4967L32.5459 11.0073L20.771 12.1344L20.7227 11.6238Z" fill="white"/>
<path d="M20.8711 13.2061L32.6459 12.0789L32.6943 12.5896L20.9195 13.7167L20.8711 13.2061Z" fill="white"/>
<path d="M21.0234 14.8179L32.7983 13.6908L32.8467 14.2014L21.0718 15.3285L21.0234 14.8179Z" fill="white"/>
<path d="M21.1836 16.4775L32.9584 15.3504L33.0068 15.8611L21.232 16.9882L21.1836 16.4775Z" fill="white"/>
<path d="M21.3359 18.2571L33.1108 17.13L33.1592 17.6406L21.3843 18.7677L21.3359 18.2571Z" fill="white"/>
<path d="M22.6313 20.3433L33.319 19.2948L33.3674 19.8055L23.2853 20.7746L23.1944 20.7111L23.0914 20.6424L22.9682 20.5604L22.8715 20.4953L22.7723 20.4326L22.6313 20.3433Z" fill="white"/>
<path d="M24.6771 21.8669L33.4918 21.0089L33.5402 21.5196L25.1872 22.3392L25.0146 22.1761L24.8794 22.0488L24.6771 21.8669Z" fill="white"/>
<path d="M26.4224 23.6832L33.6823 22.9825L33.7307 23.4932L26.7925 24.1626L26.6371 23.9525L26.4224 23.6832Z" fill="white"/>
<path d="M19.5659 6.42838L18.8814 6.49417L17.5095 4.458L17.7122 6.60654L17.0611 6.66913L16.7656 3.53882L17.6148 3.4572L18.7885 5.15391L18.6193 3.36066L19.2705 3.29807L19.5659 6.42838Z" fill="#F2F2F2"/>
<path d="M22.2569 6.1707L20.2642 6.36221L19.9688 3.23169L21.9614 3.04018L22.0185 3.64567L20.7327 3.76926L20.7837 4.30959L21.977 4.1949L22.0342 4.8004L20.8408 4.91509L20.9138 5.68879L22.1997 5.5652L22.2569 6.1707Z" fill="#F2F2F2"/>
<path d="M26.3585 2.61947L25.9121 5.82047L25.126 5.89602L24.4398 3.90466L24.1513 5.98971L23.3652 6.06526L22.3281 3.00684L23.0698 2.93555L23.6967 5.04927L24.0002 2.84613L24.7086 2.77804L25.3947 4.88608L25.6353 2.68898L26.3585 2.61947Z" fill="#F2F2F2"/>
<path d="M29.2388 4.50964C29.2679 4.81798 29.1763 5.07995 28.9639 5.29553C28.7526 5.5096 28.4496 5.6356 28.055 5.67353C27.8268 5.69546 27.6255 5.69218 27.4511 5.66369C27.2777 5.63368 27.1137 5.59075 26.9591 5.53489L26.8883 4.78435L26.966 4.77688C27.1253 4.89593 27.299 4.98247 27.4871 5.03653C27.6764 5.09046 27.8549 5.10937 28.0226 5.09325C28.0658 5.0891 28.1221 5.07944 28.1916 5.06426C28.2611 5.04909 28.3172 5.02957 28.3597 5.00568C28.4116 4.97525 28.453 4.93944 28.484 4.89827C28.5162 4.85699 28.5288 4.79921 28.5218 4.72493C28.5153 4.65625 28.4838 4.59987 28.4274 4.5558C28.3721 4.5102 28.2938 4.47883 28.1926 4.46168C28.0864 4.44361 27.9742 4.42823 27.856 4.41555C27.7389 4.40135 27.628 4.38019 27.5233 4.35206C27.2833 4.28885 27.1053 4.18928 26.9892 4.05335C26.8742 3.91591 26.8064 3.73857 26.7859 3.52132C26.7584 3.22979 26.8507 2.98121 27.0627 2.77555C27.2759 2.56838 27.5632 2.44742 27.9246 2.41269C28.1059 2.39527 28.2866 2.3984 28.4668 2.42209C28.6482 2.44427 28.8064 2.47926 28.9416 2.52708L29.0097 3.24819L28.9338 3.25549C28.8133 3.16524 28.669 3.09425 28.5011 3.0425C28.3343 2.98923 28.167 2.97066 27.9993 2.98678C27.9401 2.99247 27.8814 3.00306 27.8231 3.01857C27.7659 3.03256 27.7114 3.05477 27.6595 3.08521C27.6134 3.11086 27.5751 3.14706 27.5447 3.19383C27.5141 3.23919 27.5014 3.28921 27.5066 3.34388C27.5144 3.42657 27.5481 3.48767 27.6079 3.52718C27.6675 3.5653 27.7761 3.59517 27.9337 3.61679C28.0371 3.63089 28.1361 3.64471 28.2307 3.65825C28.3265 3.67166 28.43 3.69284 28.541 3.72177C28.7593 3.77999 28.9248 3.87227 29.0375 3.99862C29.1514 4.12345 29.2185 4.2938 29.2388 4.50964Z" fill="#F2F2F2"/>
<path d="M14.5337 46.5992C11.9049 46.5992 9.3351 45.8158 7.14933 44.3479C4.96355 42.88 3.25995 40.7937 2.25395 38.3527C1.24795 35.9117 0.984731 33.2257 1.49759 30.6344C2.01044 28.0431 3.27633 25.6628 5.13518 23.7945C6.99403 21.9263 9.36235 20.654 11.9406 20.1385C14.5189 19.6231 17.1914 19.8876 19.6201 20.8987C22.0488 21.9098 24.1247 23.622 25.5852 25.8188C27.0456 28.0157 27.8252 30.5984 27.8252 33.2405" stroke="#1E656D" stroke-width="1.4" stroke-linecap="round" stroke-linejoin="round"/>
<path d="M14.5352 19.8818V31.2041" stroke="#1E656D" stroke-width="1.4" stroke-miterlimit="10" stroke-linecap="round"/>
<path d="M4.07031 25.0198C6.50325 25.9567 10.2799 26.5612 14.5325 26.5612C18.7851 26.5612 22.5617 25.9567 24.9947 25.0198" stroke="#1E656D" stroke-width="1.4" stroke-miterlimit="10"/>
<path d="M22.1918 29.5013C21.2263 23.9434 18.163 19.8818 14.5335 19.8818C10.1291 19.8818 6.55859 25.8627 6.55859 33.2405C6.55859 40.6183 10.1291 46.5992 14.5335 46.5992" stroke="#1E656D" stroke-width="1.4" stroke-linecap="round" stroke-linejoin="round"/>
<path d="M12.767 33.2405H1.40234" stroke="#1E656D" stroke-width="1.4" stroke-linecap="round" stroke-linejoin="round"/>
<path d="M11.4459 40.0291C8.93282 40.1576 6.45013 40.6398 4.07031 41.4614" stroke="#1E656D" stroke-width="1.4" stroke-linecap="round" stroke-linejoin="round"/>
<path d="M26.8732 38.8708C26.8732 40.6011 26.1893 42.2605 24.972 43.4841C23.7547 44.7076 22.1036 45.395 20.382 45.395C19.5296 45.395 18.6855 45.2263 17.8979 44.8984C17.1103 44.5705 16.3947 44.09 15.7919 43.4841C15.1891 42.8783 14.711 42.1591 14.3848 41.3675C14.0585 40.576 13.8906 39.7276 13.8906 38.8708C13.8906 38.0141 14.0585 37.1657 14.3848 36.3741C14.711 35.5826 15.1891 34.8634 15.7919 34.2575C16.3947 33.6517 17.1103 33.1711 17.8979 32.8433C18.6855 32.5154 19.5296 32.3467 20.382 32.3467C22.1036 32.3467 23.7547 33.0341 24.972 34.2576C26.1893 35.4811 26.8732 37.1406 26.8732 38.8708Z" stroke="#FF6E67" stroke-width="2.4" stroke-miterlimit="10"/>
<path d="M24.75 43.9829L30.1569 49.4173" stroke="#FF6E67" stroke-width="2.4" stroke-linecap="round" stroke-linejoin="round"/>
<path d="M111.099 44.8235C111.102 44.9055 111.104 44.9995 111.104 45.1055C111.107 45.2114 111.109 45.3242 111.109 45.4438C111.112 45.5634 111.114 45.6898 111.114 45.8231C111.117 45.953 111.119 46.083 111.119 46.2128V46.715H111.109C110.963 46.3732 110.701 46.2024 110.323 46.2024C110.191 46.2024 110.058 46.2296 109.926 46.2843C109.796 46.3356 109.679 46.4159 109.574 46.5253C109.472 46.6312 109.388 46.7644 109.324 46.9251C109.259 47.0857 109.227 47.2757 109.227 47.4944C109.227 47.7166 109.256 47.9078 109.313 48.0684C109.375 48.2256 109.453 48.3556 109.548 48.4581C109.647 48.5572 109.757 48.6288 109.879 48.6733C110.005 48.7177 110.133 48.7401 110.262 48.7401C110.388 48.7401 110.499 48.7229 110.594 48.6887C110.689 48.6545 110.771 48.6101 110.839 48.5555C110.91 48.5008 110.968 48.4428 111.012 48.3813C111.06 48.3163 111.097 48.2563 111.124 48.2016H111.135L111.119 48.6887C111.187 48.6819 111.252 48.6787 111.313 48.6787C111.378 48.6787 111.444 48.6819 111.512 48.6887C111.509 48.4905 111.505 48.2973 111.502 48.1093C111.498 47.9214 111.497 47.7098 111.497 47.474C111.497 47.2552 111.498 47.014 111.502 46.7509C111.505 46.4877 111.509 46.2313 111.512 45.9818C111.519 45.7323 111.526 45.5052 111.532 45.3001C111.539 45.0916 111.548 44.9329 111.558 44.8235C111.514 44.8303 111.473 44.8371 111.436 44.844C111.402 44.8474 111.366 44.849 111.328 44.849C111.291 44.849 111.253 44.8474 111.216 44.844C111.179 44.8371 111.14 44.8303 111.099 44.8235ZM123.381 44.8235C123.388 44.9089 123.394 45.0129 123.397 45.1359C123.404 45.2556 123.409 45.3819 123.412 45.5152C123.416 45.6485 123.417 45.7837 123.417 45.9204C123.421 46.0572 123.423 46.1835 123.423 46.2997V47.2279C123.423 47.3441 123.421 47.4705 123.417 47.6072C123.417 47.7439 123.416 47.8787 123.412 48.012C123.409 48.1453 123.404 48.2717 123.397 48.3913C123.394 48.5109 123.388 48.6101 123.381 48.6887C123.46 48.6819 123.537 48.6787 123.611 48.6787C123.686 48.6787 123.763 48.6819 123.841 48.6887C123.834 48.6101 123.827 48.5109 123.821 48.3913C123.817 48.2717 123.813 48.1453 123.81 48.012C123.807 47.8787 123.803 47.7439 123.8 47.6072V47.2279V46.2997V45.9204C123.803 45.7837 123.807 45.6485 123.81 45.5152C123.813 45.3819 123.817 45.2556 123.821 45.1359C123.827 45.0129 123.834 44.9089 123.841 44.8235C123.746 44.8406 123.669 44.849 123.611 44.849C123.554 44.849 123.477 44.8406 123.381 44.8235ZM91.4249 45.1C91.1597 45.7118 90.8962 46.3133 90.6344 46.9046C90.3725 47.4959 90.1035 48.0906 89.8281 48.6887C89.886 48.6819 89.9492 48.6787 90.0172 48.6787C90.0853 48.6787 90.1481 48.6819 90.2059 48.6887C90.2502 48.5315 90.316 48.3335 90.4044 48.0943C90.4929 47.8516 90.5917 47.5969 90.7005 47.3303C90.8059 47.3268 90.9098 47.3253 91.0118 47.3253C91.1138 47.3218 91.2172 47.3198 91.3226 47.3198C91.4348 47.3198 91.5472 47.3218 91.6594 47.3253C91.7716 47.3253 91.8822 47.3268 91.991 47.3303C92.0353 47.4431 92.083 47.5626 92.134 47.6891C92.185 47.8121 92.2344 47.9353 92.282 48.0584C92.333 48.178 92.3787 48.294 92.4195 48.4067C92.4602 48.5161 92.4925 48.6101 92.5163 48.6887C92.5639 48.6819 92.6082 48.6787 92.649 48.6787H92.7869H92.9196C92.9638 48.6787 93.0094 48.6819 93.057 48.6887C93.0129 48.6067 92.9551 48.4871 92.8837 48.3299C92.8157 48.1727 92.7374 47.9951 92.649 47.7969C92.564 47.5952 92.4723 47.378 92.3737 47.1456C92.275 46.9132 92.1764 46.6792 92.0778 46.4434C91.9792 46.2076 91.8822 45.9752 91.787 45.7463C91.6918 45.5138 91.6034 45.2983 91.5217 45.1H91.4249ZM115.389 45.1C115.11 45.1 114.853 45.1412 114.618 45.2232C114.384 45.3053 114.181 45.4249 114.011 45.5821C113.845 45.7393 113.714 45.9325 113.619 46.1615C113.527 46.387 113.481 46.645 113.481 46.9355C113.481 47.226 113.527 47.4856 113.619 47.7146C113.714 47.9402 113.845 48.1317 114.011 48.289C114.181 48.4462 114.384 48.5641 114.618 48.6428C114.853 48.7179 115.11 48.7555 115.389 48.7555H115.46C115.494 48.7555 115.52 48.754 115.537 48.7505C115.751 48.9248 115.953 49.0972 116.143 49.2681C116.334 49.439 116.523 49.6118 116.71 49.7861C116.737 49.7417 116.788 49.6973 116.863 49.6528C116.938 49.6084 117.019 49.5824 117.108 49.5755C116.9 49.4286 116.701 49.2818 116.511 49.1349C116.324 48.9879 116.138 48.8411 115.955 48.6941C116.159 48.6565 116.343 48.5882 116.506 48.489C116.672 48.3899 116.813 48.2651 116.929 48.1148C117.048 47.961 117.14 47.7866 117.204 47.5918C117.269 47.3935 117.301 47.1748 117.301 46.9355C117.301 46.645 117.254 46.387 117.159 46.1615C117.067 45.9325 116.936 45.7393 116.766 45.5821C116.599 45.4249 116.399 45.3053 116.164 45.2232C115.93 45.1412 115.671 45.1 115.389 45.1ZM125.03 45.1C124.958 45.1 124.897 45.1256 124.846 45.1769C124.795 45.2281 124.769 45.2897 124.769 45.3615C124.769 45.4333 124.795 45.4949 124.846 45.5461C124.897 45.5974 124.958 45.623 125.03 45.623C125.101 45.623 125.162 45.5974 125.213 45.5461C125.264 45.4949 125.289 45.4333 125.289 45.3615C125.289 45.2897 125.264 45.2281 125.213 45.1769C125.162 45.1256 125.101 45.1 125.03 45.1ZM131.676 45.1C131.683 45.2162 131.686 45.3922 131.686 45.628C131.689 45.8639 131.691 46.1458 131.691 46.4739C131.691 46.5867 131.689 46.7151 131.686 46.8586C131.682 47.0022 131.678 47.149 131.671 47.2994C131.667 47.4497 131.661 47.6001 131.65 47.7505C131.644 47.9009 131.636 48.0413 131.63 48.1712C131.623 48.2976 131.614 48.4068 131.604 48.4991C131.597 48.5913 131.591 48.6545 131.584 48.6887C131.642 48.6819 131.705 48.6787 131.772 48.6787C131.837 48.6787 131.897 48.6819 131.951 48.6887C131.948 48.6614 131.944 48.6102 131.941 48.535C131.938 48.4564 131.934 48.366 131.931 48.2635C131.928 48.1609 131.924 48.0497 131.921 47.9301C131.917 47.8105 131.914 47.6925 131.91 47.5763C131.91 47.4601 131.909 47.3489 131.905 47.243V46.9764C131.905 46.6996 131.907 46.4808 131.91 46.3202C131.914 46.1596 131.917 46.0316 131.921 45.9359C132.363 46.4075 132.805 46.8827 133.247 47.3612C133.689 47.8363 134.106 48.301 134.497 48.7555H134.568V48.5864C134.568 48.5043 134.566 48.4088 134.563 48.2994C134.563 48.1866 134.561 48.0666 134.558 47.9402C134.558 47.8103 134.556 47.6823 134.553 47.5558V47.192V46.8841C134.553 46.785 134.556 46.6534 134.563 46.4894C134.569 46.3253 134.576 46.1582 134.583 45.9873C134.593 45.8164 134.602 45.6556 134.609 45.5052C134.619 45.3548 134.627 45.242 134.634 45.1669C134.566 45.1839 134.512 45.1923 134.471 45.1923C134.423 45.1923 134.365 45.1839 134.297 45.1669C134.314 45.4676 134.325 45.7888 134.328 46.1305C134.335 46.4689 134.338 46.8177 134.338 47.1765V47.8737C134.182 47.7165 133.998 47.5269 133.788 47.3048C133.58 47.0792 133.359 46.8416 133.124 46.5922C132.893 46.3392 132.659 46.0845 132.42 45.8281C132.186 45.5684 131.965 45.3256 131.757 45.1H131.676ZM115.389 45.2897C115.589 45.2897 115.775 45.3225 115.945 45.3874C116.118 45.4524 116.268 45.5532 116.394 45.6899C116.523 45.8231 116.623 45.9939 116.694 46.2024C116.766 46.4075 116.802 46.6518 116.802 46.9355C116.802 47.2192 116.766 47.4652 116.694 47.6736C116.623 47.8787 116.523 48.0499 116.394 48.1866C116.268 48.3199 116.118 48.4187 115.945 48.4836C115.775 48.5486 115.589 48.5814 115.389 48.5814C115.191 48.5814 115.006 48.5486 114.832 48.4836C114.662 48.4187 114.513 48.3199 114.384 48.1866C114.258 48.0499 114.159 47.8787 114.088 47.6736C114.017 47.4652 113.981 47.2192 113.981 46.9355C113.981 46.6518 114.017 46.4075 114.088 46.2024C114.159 45.9939 114.258 45.8231 114.384 45.6899C114.513 45.5532 114.662 45.4524 114.832 45.3874C115.006 45.3225 115.191 45.2897 115.389 45.2897ZM105.87 45.5666L105.447 45.7463C105.454 45.8556 105.457 45.9616 105.457 46.0641C105.461 46.1667 105.464 46.2518 105.468 46.3202C105.396 46.3202 105.284 46.315 105.131 46.3048C105.134 46.3218 105.136 46.339 105.136 46.3561C105.139 46.3732 105.141 46.3904 105.141 46.4075C105.141 46.428 105.139 46.4484 105.136 46.4689C105.136 46.486 105.134 46.5048 105.131 46.5253C105.165 46.5219 105.197 46.5203 105.228 46.5203C105.258 46.5169 105.287 46.5153 105.314 46.5153H105.478C105.478 46.7067 105.476 46.8807 105.473 47.0379C105.469 47.1917 105.464 47.3337 105.457 47.4635C105.454 47.59 105.45 47.708 105.447 47.8173C105.443 47.9233 105.442 48.0225 105.442 48.1148C105.442 48.3198 105.493 48.4754 105.595 48.5814C105.697 48.6873 105.855 48.7401 106.07 48.7401C106.134 48.7401 106.2 48.7317 106.268 48.7146C106.339 48.7009 106.404 48.6889 106.462 48.6787V48.5555C106.428 48.5657 106.387 48.5745 106.34 48.5814C106.295 48.5882 106.26 48.5914 106.232 48.5914C106.13 48.5914 106.052 48.5694 105.998 48.525C105.944 48.4805 105.903 48.4221 105.875 48.3504C105.848 48.2752 105.832 48.1916 105.825 48.0993C105.821 48.007 105.819 47.913 105.819 47.8173V47.4326C105.823 47.2891 105.826 47.1527 105.83 47.0228C105.833 46.8895 105.836 46.7747 105.84 46.679C105.846 46.5833 105.852 46.529 105.855 46.5153H106.105C106.16 46.5153 106.211 46.5169 106.258 46.5203C106.306 46.5203 106.352 46.5219 106.396 46.5253C106.392 46.515 106.391 46.4979 106.391 46.4739V46.4175V46.3666C106.391 46.3392 106.392 46.3204 106.396 46.3102C106.277 46.317 106.166 46.3222 106.064 46.3256H105.855C105.862 46.1992 105.867 46.0744 105.87 45.9513C105.877 45.8249 105.886 45.6965 105.896 45.5666H105.87ZM126.565 45.5666L126.141 45.7463C126.148 45.8556 126.152 45.9616 126.152 46.0641C126.155 46.1667 126.158 46.2518 126.162 46.3202C126.09 46.3202 125.978 46.315 125.825 46.3048C125.828 46.3218 125.83 46.339 125.83 46.3561C125.833 46.3732 125.835 46.3904 125.835 46.4075C125.835 46.428 125.833 46.4484 125.83 46.4689C125.83 46.486 125.828 46.5048 125.825 46.5253C125.859 46.5219 125.891 46.5203 125.922 46.5203C125.952 46.5169 125.981 46.5153 126.009 46.5153H126.172C126.172 46.7067 126.17 46.8807 126.167 47.0379C126.163 47.1917 126.158 47.3337 126.152 47.4635C126.148 47.59 126.145 47.708 126.141 47.8173C126.138 47.9233 126.136 48.0225 126.136 48.1148C126.136 48.3198 126.187 48.4754 126.289 48.5814C126.391 48.6873 126.549 48.7401 126.764 48.7401C126.828 48.7401 126.894 48.7317 126.962 48.7146C127.034 48.7009 127.098 48.6889 127.156 48.6787V48.5555C127.122 48.5657 127.082 48.5745 127.034 48.5814C126.99 48.5882 126.954 48.5914 126.927 48.5914C126.825 48.5914 126.746 48.5694 126.692 48.525C126.637 48.4805 126.597 48.4221 126.57 48.3504C126.542 48.2752 126.526 48.1916 126.519 48.0993C126.515 48.007 126.514 47.913 126.514 47.8173V47.4326C126.517 47.2891 126.52 47.1527 126.524 47.0228C126.527 46.8895 126.531 46.7747 126.534 46.679C126.541 46.5833 126.546 46.529 126.549 46.5153H126.799C126.854 46.5153 126.905 46.5169 126.952 46.5203C127 46.5203 127.046 46.5219 127.09 46.5253C127.087 46.515 127.085 46.4979 127.085 46.4739V46.4175V46.3666C127.085 46.3392 127.087 46.3204 127.09 46.3102C126.971 46.317 126.86 46.3222 126.758 46.3256H126.549C126.556 46.1992 126.561 46.0744 126.565 45.9513C126.572 45.8249 126.58 45.6965 126.59 45.5666H126.565ZM91.3534 45.7922L91.9195 47.0942L91.634 47.1047H91.3483C91.2599 47.1047 91.1681 47.1031 91.0728 47.0997C90.9776 47.0963 90.8857 47.0942 90.7974 47.0942L91.3534 45.7922ZM94.3728 46.2024C94.2402 46.2024 94.1147 46.2196 93.9956 46.2538C93.88 46.288 93.7765 46.3391 93.6846 46.4075C93.5962 46.4759 93.5261 46.563 93.4751 46.669C93.4241 46.7715 93.3987 46.8943 93.3987 47.0379C93.3987 47.2258 93.4429 47.3834 93.5313 47.5099C93.6197 47.6329 93.7422 47.7285 93.8986 47.7969V47.8069C93.8578 47.8137 93.8152 47.8293 93.771 47.8533C93.7269 47.8772 93.688 47.908 93.654 47.9456C93.62 47.9832 93.5908 48.026 93.567 48.0738C93.5466 48.1217 93.5368 48.1745 93.5368 48.2326C93.5368 48.3317 93.5637 48.4173 93.618 48.489C93.6725 48.5608 93.7526 48.612 93.858 48.6428V48.6528C93.79 48.6699 93.7235 48.6955 93.6589 48.7296C93.5943 48.7638 93.5365 48.8102 93.4855 48.8683C93.4345 48.9264 93.392 48.9928 93.3581 49.068C93.3274 49.1432 93.3123 49.2256 93.3123 49.3145C93.3123 49.5435 93.4074 49.7226 93.5978 49.8525C93.7883 49.9858 94.0485 50.0526 94.3783 50.0526C94.5926 50.0526 94.776 50.0202 94.9289 49.9553C95.082 49.8903 95.2063 49.8083 95.3014 49.7092C95.4001 49.6101 95.4716 49.4989 95.5158 49.3759C95.5635 49.2528 95.5869 49.1312 95.5869 49.0116C95.5869 48.9228 95.5703 48.8408 95.5363 48.7656C95.5057 48.6904 95.4543 48.624 95.3829 48.5659C95.315 48.5078 95.225 48.4614 95.1127 48.4272C95.0039 48.393 94.8713 48.3742 94.7149 48.3708C94.6197 48.3674 94.5263 48.3658 94.4345 48.3658C94.3427 48.3624 94.2491 48.3592 94.1539 48.3558C94.0382 48.3524 93.9583 48.33 93.9142 48.289C93.8733 48.2479 93.8529 48.1832 93.8529 48.0943C93.8529 48.0259 93.8785 47.9695 93.9295 47.9251C93.9839 47.8807 94.0416 47.8583 94.1029 47.8583C94.1505 47.8583 94.1961 47.8599 94.2403 47.8633C94.2879 47.8667 94.3356 47.8687 94.3833 47.8687C94.6723 47.8687 94.9021 47.7967 95.0721 47.6532C95.2455 47.5062 95.3323 47.3046 95.3323 47.0483C95.3323 46.9184 95.3 46.7936 95.2354 46.674C95.1708 46.551 95.0856 46.4606 94.9802 46.4025L94.9902 46.3921C95.082 46.3955 95.1738 46.4023 95.2657 46.4125C95.3609 46.4193 95.4581 46.4262 95.5567 46.433L95.5463 46.382V46.3256V46.2742C95.5497 46.2537 95.5533 46.2349 95.5567 46.2178C95.4717 46.2349 95.3339 46.2433 95.1436 46.2433C95.1062 46.2433 95.0567 46.2417 94.9955 46.2383C94.9343 46.2349 94.8647 46.2297 94.7866 46.2229C94.6947 46.216 94.6178 46.2108 94.5566 46.2074C94.4988 46.204 94.4374 46.2024 94.3728 46.2024ZM97.158 46.2024C96.9098 46.2024 96.6853 46.3868 96.4847 46.7559L96.4749 46.7509V46.5458C96.4782 46.474 96.4866 46.3768 96.5002 46.2538C96.4628 46.2606 96.4269 46.2674 96.393 46.2742C96.359 46.2777 96.3265 46.2792 96.296 46.2792C96.2586 46.2792 96.2231 46.2777 96.1892 46.2742C96.1551 46.2674 96.1193 46.2606 96.082 46.2538C96.0922 46.4794 96.0973 46.6793 96.0973 46.8536C96.1007 47.028 96.1024 47.1815 96.1024 47.3148V47.479C96.1024 47.7695 96.1007 48.0154 96.0973 48.2171C96.0973 48.4153 96.0922 48.5725 96.082 48.6887C96.15 48.6819 96.2211 48.6787 96.296 48.6787C96.3639 48.6787 96.4322 48.6819 96.5002 48.6887C96.49 48.6135 96.4832 48.5164 96.4798 48.3967V47.8687V47.3048C96.4798 47.2057 96.4917 47.1133 96.5155 47.0278C96.5393 46.939 96.5731 46.8638 96.6172 46.8023C96.6615 46.7373 96.716 46.6861 96.7806 46.6485C96.8452 46.6109 96.9185 46.5922 97.0001 46.5922C97.0511 46.5922 97.1004 46.6005 97.148 46.6176C97.199 46.6347 97.2329 46.6535 97.2499 46.674L97.2856 46.6485C97.2856 46.5802 97.2871 46.505 97.2905 46.423C97.2939 46.3375 97.3044 46.2743 97.3214 46.2333C97.2873 46.2196 97.2584 46.2108 97.2346 46.2074C97.2141 46.204 97.1886 46.2024 97.158 46.2024ZM98.7395 46.2024C98.3586 46.2024 98.0677 46.322 97.867 46.5612C97.6698 46.8005 97.5711 47.1304 97.5711 47.5508C97.5711 47.7217 97.6003 47.8805 97.6581 48.0274C97.7193 48.1744 97.8044 48.3028 97.9132 48.4122C98.0254 48.5181 98.1563 48.6001 98.3059 48.6582C98.459 48.7129 98.6273 48.7401 98.8109 48.7401C98.9741 48.7401 99.1306 48.7109 99.2802 48.6528C99.4333 48.5947 99.5605 48.5247 99.6625 48.4427L99.6934 48.1916L99.668 48.1762C99.6238 48.2274 99.5708 48.2754 99.5096 48.3199C99.4518 48.3643 99.3888 48.4035 99.3209 48.4377C99.2528 48.4684 99.1832 48.494 99.1118 48.5145C99.0403 48.5316 98.9709 48.54 98.9028 48.54C98.76 48.54 98.6339 48.5164 98.525 48.4686C98.4162 48.4173 98.3247 48.3505 98.2499 48.2685C98.1751 48.183 98.1169 48.0822 98.0762 47.966C98.0388 47.8498 98.02 47.725 98.02 47.5918V47.5249C98.02 47.4908 98.0221 47.4652 98.0255 47.4481C98.1377 47.4446 98.2479 47.4415 98.3568 47.438C98.469 47.4346 98.581 47.4326 98.6933 47.4326C98.8769 47.4326 99.0594 47.4346 99.2396 47.438C99.4198 47.4415 99.6017 47.4446 99.7853 47.4481C99.7887 47.4139 99.7902 47.3815 99.7902 47.3507C99.7936 47.3165 99.7951 47.2826 99.7951 47.2484C99.7951 47.1048 99.7734 46.9697 99.7291 46.8432C99.6883 46.7167 99.6233 46.6076 99.5349 46.5153C99.4465 46.4196 99.3363 46.3444 99.2037 46.2897C99.0745 46.2316 98.9197 46.2024 98.7395 46.2024ZM101.173 46.2024C101.04 46.2024 100.914 46.2196 100.795 46.2538C100.68 46.288 100.576 46.3391 100.484 46.4075C100.395 46.4759 100.326 46.563 100.275 46.669C100.224 46.7715 100.198 46.8943 100.198 47.0379C100.198 47.2258 100.243 47.3834 100.331 47.5099C100.419 47.6329 100.542 47.7285 100.698 47.7969V47.8069C100.658 47.8137 100.615 47.8293 100.571 47.8533C100.526 47.8772 100.487 47.908 100.453 47.9456C100.419 47.9832 100.39 48.026 100.367 48.0738C100.346 48.1217 100.336 48.1745 100.336 48.2326C100.336 48.3317 100.363 48.4173 100.418 48.489C100.472 48.5608 100.552 48.612 100.657 48.6428V48.6528C100.589 48.6699 100.523 48.6955 100.459 48.7296C100.394 48.7638 100.336 48.8102 100.285 48.8683C100.234 48.9264 100.192 48.9928 100.158 49.068C100.127 49.1432 100.111 49.2256 100.111 49.3145C100.111 49.5435 100.207 49.7226 100.398 49.8525C100.588 49.9858 100.848 50.0526 101.178 50.0526C101.392 50.0526 101.576 50.0202 101.729 49.9553C101.882 49.8903 102.006 49.8083 102.101 49.7092C102.2 49.6101 102.271 49.4989 102.315 49.3759C102.363 49.2528 102.387 49.1312 102.387 49.0116C102.387 48.9228 102.37 48.8408 102.336 48.7656C102.305 48.6904 102.254 48.624 102.183 48.5659C102.115 48.5078 102.025 48.4614 101.912 48.4272C101.804 48.393 101.671 48.3742 101.514 48.3708C101.419 48.3674 101.325 48.3658 101.234 48.3658C101.142 48.3624 101.048 48.3592 100.953 48.3558C100.837 48.3524 100.758 48.33 100.713 48.289C100.672 48.2479 100.652 48.1832 100.652 48.0943C100.652 48.0259 100.678 47.9695 100.729 47.9251C100.783 47.8807 100.841 47.8583 100.902 47.8583C100.95 47.8583 100.996 47.8599 101.04 47.8633C101.088 47.8667 101.135 47.8687 101.183 47.8687C101.472 47.8687 101.701 47.7967 101.871 47.6532C102.045 47.5062 102.131 47.3046 102.131 47.0483C102.131 46.9184 102.099 46.7936 102.035 46.674C101.97 46.551 101.885 46.4606 101.779 46.4025L101.79 46.3921C101.882 46.3955 101.974 46.4023 102.065 46.4125C102.161 46.4193 102.257 46.4262 102.356 46.433L102.346 46.382V46.3256V46.2742C102.349 46.2537 102.352 46.2349 102.356 46.2178C102.271 46.2349 102.133 46.2433 101.943 46.2433C101.905 46.2433 101.856 46.2417 101.795 46.2383C101.734 46.2349 101.664 46.2297 101.586 46.2229C101.494 46.216 101.418 46.2108 101.356 46.2074C101.299 46.204 101.237 46.2024 101.173 46.2024ZM103.754 46.2024C103.618 46.2024 103.485 46.2228 103.356 46.2638C103.227 46.3048 103.085 46.3836 102.932 46.4998V46.7663H102.988C103.046 46.657 103.133 46.5714 103.249 46.5099C103.368 46.4483 103.495 46.4175 103.631 46.4175C103.733 46.4175 103.82 46.4363 103.891 46.4739C103.963 46.5081 104.021 46.5545 104.065 46.6126C104.109 46.6707 104.141 46.7391 104.162 46.8177C104.182 46.8963 104.192 46.9783 104.192 47.0637C104.192 47.115 104.187 47.1578 104.177 47.192C104.167 47.2228 104.136 47.2499 104.085 47.2739C104.038 47.2978 103.961 47.3218 103.855 47.3457C103.753 47.3662 103.611 47.3918 103.427 47.4226C103.203 47.4602 103.026 47.5354 102.897 47.6482C102.771 47.7609 102.708 47.9197 102.708 48.1248C102.708 48.2239 102.727 48.3127 102.764 48.3913C102.805 48.4665 102.856 48.5317 102.917 48.5864C102.982 48.641 103.055 48.6803 103.136 48.7042C103.218 48.7281 103.301 48.7401 103.386 48.7401C103.56 48.7401 103.706 48.7109 103.825 48.6528C103.944 48.5947 104.065 48.5043 104.187 48.3813C104.197 48.4701 104.232 48.5437 104.289 48.6018C104.347 48.6565 104.43 48.6837 104.539 48.6837C104.607 48.6837 104.668 48.6785 104.723 48.6682C104.781 48.658 104.828 48.6444 104.865 48.6273V48.5145C104.848 48.5248 104.83 48.5316 104.809 48.535H104.759C104.708 48.535 104.668 48.523 104.641 48.4991C104.617 48.4751 104.598 48.4464 104.585 48.4122C104.571 48.3746 104.563 48.3334 104.56 48.289V48.1557C104.56 47.9404 104.563 47.7368 104.57 47.5454C104.577 47.3506 104.58 47.1558 104.58 46.961C104.58 46.8482 104.56 46.7458 104.519 46.6536C104.478 46.5579 104.422 46.4774 104.35 46.4125C104.279 46.3442 104.192 46.293 104.09 46.2588C103.988 46.2212 103.876 46.2024 103.754 46.2024ZM107.809 46.2024C107.428 46.2024 107.137 46.322 106.936 46.5612C106.739 46.8005 106.641 47.1304 106.641 47.5508C106.641 47.7217 106.67 47.8805 106.727 48.0274C106.789 48.1744 106.874 48.3028 106.983 48.4122C107.095 48.5181 107.226 48.6001 107.375 48.6582C107.528 48.7129 107.697 48.7401 107.88 48.7401C108.044 48.7401 108.2 48.7109 108.349 48.6528C108.503 48.5947 108.63 48.5247 108.732 48.4427L108.763 48.1916L108.737 48.1762C108.693 48.2274 108.64 48.2754 108.579 48.3199C108.521 48.3643 108.458 48.4035 108.39 48.4377C108.322 48.4684 108.253 48.494 108.181 48.5145C108.11 48.5316 108.04 48.54 107.972 48.54C107.829 48.54 107.703 48.5164 107.594 48.4686C107.486 48.4173 107.394 48.3505 107.319 48.2685C107.245 48.183 107.186 48.0822 107.146 47.966C107.108 47.8498 107.089 47.725 107.089 47.5918V47.5249C107.089 47.4908 107.091 47.4652 107.095 47.4481C107.207 47.4446 107.317 47.4415 107.426 47.438C107.538 47.4346 107.65 47.4326 107.763 47.4326C107.946 47.4326 108.128 47.4346 108.308 47.438C108.489 47.4415 108.671 47.4446 108.854 47.4481C108.858 47.4139 108.86 47.3815 108.86 47.3507C108.863 47.3165 108.865 47.2826 108.865 47.2484C108.865 47.1048 108.843 46.9697 108.798 46.8432C108.758 46.7167 108.693 46.6076 108.604 46.5153C108.516 46.4196 108.406 46.3444 108.273 46.2897C108.144 46.2316 107.989 46.2024 107.809 46.2024ZM121.612 46.2024C121.476 46.2024 121.343 46.2228 121.214 46.2638C121.085 46.3048 120.944 46.3836 120.791 46.4998V46.7663H120.847C120.905 46.657 120.991 46.5714 121.107 46.5099C121.226 46.4483 121.353 46.4175 121.489 46.4175C121.591 46.4175 121.678 46.4363 121.749 46.4739C121.821 46.5081 121.879 46.5545 121.923 46.6126C121.967 46.6707 122 46.7391 122.02 46.8177C122.04 46.8963 122.05 46.9783 122.05 47.0637C122.05 47.115 122.045 47.1578 122.035 47.192C122.025 47.2228 121.995 47.2499 121.944 47.2739C121.896 47.2978 121.819 47.3218 121.714 47.3457C121.612 47.3662 121.469 47.3918 121.285 47.4226C121.061 47.4602 120.884 47.5354 120.755 47.6482C120.629 47.7609 120.566 47.9197 120.566 48.1248C120.566 48.2239 120.585 48.3127 120.622 48.3913C120.663 48.4665 120.714 48.5317 120.775 48.5864C120.84 48.641 120.913 48.6803 120.995 48.7042C121.076 48.7281 121.159 48.7401 121.244 48.7401C121.418 48.7401 121.564 48.7109 121.683 48.6528C121.802 48.5947 121.923 48.5043 122.045 48.3813C122.055 48.4701 122.089 48.5437 122.147 48.6018C122.205 48.6565 122.289 48.6837 122.397 48.6837C122.465 48.6837 122.527 48.6785 122.581 48.6682C122.639 48.658 122.686 48.6444 122.723 48.6273V48.5145C122.707 48.5248 122.688 48.5316 122.668 48.535H122.617C122.566 48.535 122.526 48.523 122.499 48.4991C122.475 48.4751 122.457 48.4464 122.443 48.4122C122.43 48.3746 122.421 48.3334 122.418 48.289V48.1557C122.418 47.9404 122.421 47.7368 122.428 47.5454C122.434 47.3506 122.438 47.1558 122.438 46.961C122.438 46.8482 122.418 46.7458 122.377 46.6536C122.336 46.5579 122.28 46.4774 122.209 46.4125C122.137 46.3442 122.05 46.293 121.948 46.2588C121.846 46.2212 121.734 46.2024 121.612 46.2024ZM136.44 46.2024C136.059 46.2024 135.768 46.322 135.568 46.5612C135.37 46.8005 135.272 47.1304 135.272 47.5508C135.272 47.7217 135.301 47.8805 135.359 48.0274C135.42 48.1744 135.505 48.3028 135.613 48.4122C135.726 48.5181 135.856 48.6001 136.006 48.6582C136.159 48.7129 136.327 48.7401 136.511 48.7401C136.674 48.7401 136.831 48.7109 136.981 48.6528C137.134 48.5947 137.261 48.5247 137.363 48.4427L137.394 48.1916L137.368 48.1762C137.324 48.2274 137.271 48.2754 137.21 48.3199C137.152 48.3643 137.09 48.4035 137.022 48.4377C136.954 48.4684 136.884 48.494 136.812 48.5145C136.741 48.5316 136.671 48.54 136.603 48.54C136.46 48.54 136.334 48.5164 136.226 48.4686C136.117 48.4173 136.025 48.3505 135.95 48.2685C135.875 48.183 135.817 48.0822 135.777 47.966C135.739 47.8498 135.721 47.725 135.721 47.5918V47.5249C135.721 47.4908 135.722 47.4652 135.726 47.4481C135.838 47.4446 135.948 47.4415 136.057 47.438C136.17 47.4346 136.282 47.4326 136.394 47.4326C136.578 47.4326 136.759 47.4346 136.94 47.438C137.12 47.4415 137.302 47.4446 137.486 47.4481C137.489 47.4139 137.491 47.3815 137.491 47.3507C137.494 47.3165 137.496 47.2826 137.496 47.2484C137.496 47.1048 137.474 46.9697 137.43 46.8432C137.389 46.7167 137.324 46.6076 137.236 46.5153C137.147 46.4196 137.037 46.3444 136.904 46.2897C136.775 46.2316 136.62 46.2024 136.44 46.2024ZM142.689 46.2024C142.553 46.2024 142.432 46.2228 142.326 46.2638C142.221 46.3014 142.133 46.3546 142.061 46.423C141.99 46.4913 141.935 46.5733 141.898 46.669C141.86 46.7613 141.842 46.8637 141.842 46.9764C141.842 47.12 141.871 47.2328 141.928 47.3148C141.99 47.3968 142.064 47.4636 142.153 47.5149C142.241 47.5627 142.338 47.6003 142.444 47.6277C142.549 47.655 142.646 47.6874 142.734 47.725C142.823 47.7592 142.896 47.8052 142.954 47.8633C143.015 47.918 143.046 47.9984 143.046 48.1043C143.046 48.1795 143.032 48.2463 143.005 48.3044C142.978 48.3625 142.94 48.4101 142.893 48.4477C142.849 48.4853 142.796 48.5145 142.734 48.535C142.677 48.5555 142.615 48.5659 142.551 48.5659C142.479 48.5659 142.411 48.5539 142.347 48.53C142.285 48.506 142.229 48.4768 142.178 48.4427C142.131 48.4051 142.088 48.3659 142.051 48.3249C142.017 48.2839 141.992 48.2463 141.974 48.2121H141.913C141.913 48.2634 141.901 48.3281 141.877 48.4067C141.857 48.4819 141.837 48.5419 141.816 48.5864C141.888 48.6274 141.976 48.6634 142.081 48.6941C142.187 48.7249 142.318 48.7401 142.474 48.7401C142.617 48.7401 142.745 48.7197 142.857 48.6787C142.969 48.6343 143.064 48.5743 143.142 48.4991C143.224 48.4204 143.285 48.3333 143.326 48.2376C143.37 48.1419 143.392 48.0447 143.392 47.9456C143.392 47.802 143.362 47.6893 143.3 47.6072C143.242 47.5252 143.17 47.462 143.081 47.4176C142.993 47.3697 142.896 47.3337 142.79 47.3098C142.685 47.2825 142.588 47.2517 142.5 47.2175C142.412 47.1833 142.337 47.1373 142.276 47.0792C142.218 47.0177 142.189 46.9321 142.189 46.8227C142.189 46.7475 142.202 46.6828 142.229 46.6281C142.257 46.5734 142.291 46.529 142.331 46.4948C142.372 46.4606 142.418 46.4346 142.469 46.4175C142.52 46.4004 142.571 46.3921 142.622 46.3921C142.738 46.3921 142.835 46.4244 142.913 46.4894C142.991 46.5543 143.044 46.6279 143.071 46.7099H143.132C143.139 46.6689 143.154 46.6109 143.178 46.5358C143.202 46.4606 143.227 46.3974 143.255 46.3461C143.176 46.3188 143.093 46.288 143.005 46.2538C142.92 46.2196 142.814 46.2024 142.689 46.2024ZM117.909 46.2538C117.912 46.3973 117.913 46.5389 117.913 46.679C117.917 46.8192 117.919 46.9492 117.919 47.0688C117.919 47.1952 117.915 47.3236 117.909 47.4535C117.905 47.5799 117.903 47.7335 117.903 47.9147C117.903 48.1813 117.978 48.3864 118.128 48.53C118.281 48.6701 118.49 48.7401 118.755 48.7401C118.918 48.7401 119.07 48.7025 119.209 48.6273C119.348 48.5487 119.463 48.4275 119.551 48.2635H119.561V48.4836C119.561 48.5212 119.56 48.5572 119.556 48.5914C119.556 48.6255 119.555 48.658 119.551 48.6887C119.619 48.6819 119.685 48.6787 119.75 48.6787C119.814 48.6787 119.881 48.6819 119.949 48.6887C119.942 48.552 119.937 48.4104 119.933 48.2635C119.93 48.1165 119.929 47.9661 119.929 47.8123C119.929 47.5355 119.93 47.2739 119.933 47.0278C119.937 46.7783 119.947 46.5204 119.964 46.2538L119.862 46.2742C119.828 46.2777 119.793 46.2792 119.755 46.2792C119.718 46.2792 119.682 46.2777 119.648 46.2742C119.614 46.2674 119.578 46.2606 119.541 46.2538C119.544 46.3153 119.546 46.3801 119.546 46.4484C119.549 46.5168 119.551 46.5888 119.551 46.664V47.0942C119.551 47.2959 119.549 47.4551 119.546 47.5713C119.546 47.6875 119.541 47.7799 119.531 47.8482C119.524 47.9166 119.514 47.971 119.5 48.012C119.486 48.053 119.468 48.1026 119.444 48.1607C119.4 48.253 119.33 48.3318 119.235 48.3967C119.14 48.4583 119.021 48.489 118.878 48.489C118.779 48.489 118.692 48.4718 118.618 48.4377C118.546 48.4001 118.487 48.3541 118.439 48.2994C118.395 48.2515 118.357 48.1811 118.327 48.0889C118.296 47.9932 118.281 47.8568 118.281 47.6791C118.281 47.4227 118.284 47.1732 118.291 46.9305C118.301 46.6844 118.315 46.4589 118.332 46.2538C118.247 46.2709 118.177 46.2792 118.123 46.2792C118.065 46.2792 117.994 46.2709 117.909 46.2538ZM124.8 46.2538C124.817 46.4008 124.827 46.5595 124.83 46.7304C124.837 46.8979 124.84 47.0587 124.84 47.2125V47.7455C124.84 47.8993 124.837 48.0617 124.83 48.2326C124.827 48.4 124.817 48.552 124.8 48.6887C124.878 48.6819 124.955 48.6787 125.03 48.6787C125.104 48.6787 125.181 48.6819 125.259 48.6887C125.242 48.552 125.23 48.4 125.223 48.2326C125.22 48.0617 125.218 47.8993 125.218 47.7455V47.2125C125.218 47.0587 125.22 46.8979 125.223 46.7304C125.23 46.5595 125.242 46.4008 125.259 46.2538C125.164 46.2709 125.087 46.2792 125.03 46.2792C124.972 46.2792 124.895 46.2709 124.8 46.2538ZM127.268 46.2538C127.292 46.3085 127.328 46.3921 127.376 46.5048C127.423 46.6176 127.478 46.7492 127.539 46.8996C127.604 47.0466 127.672 47.2053 127.743 47.3762C127.815 47.5437 127.884 47.7097 127.952 47.8737C128.02 48.0344 128.083 48.1879 128.141 48.3349C128.202 48.4819 128.251 48.6019 128.289 48.6941C128.102 49.1419 127.874 49.5894 127.605 50.0371C127.673 50.02 127.731 50.0117 127.779 50.0117C127.826 50.0117 127.884 50.02 127.952 50.0371C127.979 49.9517 128.02 49.8353 128.074 49.6883C128.132 49.5448 128.199 49.3828 128.273 49.2017C128.348 49.024 128.43 48.836 128.518 48.6377L128.783 48.0325C128.875 47.8274 128.964 47.6294 129.049 47.438C129.137 47.2432 129.217 47.0673 129.288 46.91C129.363 46.7494 129.426 46.6126 129.477 46.4998C129.532 46.3836 129.571 46.3016 129.595 46.2538C129.527 46.2709 129.471 46.2792 129.426 46.2792C129.382 46.2792 129.326 46.2709 129.258 46.2538C129.156 46.5819 129.039 46.9166 128.906 47.2584C128.777 47.6002 128.641 47.9213 128.498 48.2221C128.355 47.8803 128.219 47.5492 128.09 47.2279C127.961 46.9066 127.843 46.5819 127.738 46.2538C127.693 46.2606 127.653 46.2674 127.615 46.2742C127.578 46.2777 127.541 46.2792 127.503 46.2792C127.466 46.2792 127.429 46.2777 127.391 46.2742C127.354 46.2674 127.313 46.2606 127.268 46.2538ZM137.736 46.2538C137.821 46.4589 137.906 46.6776 137.991 46.91C138.079 47.139 138.162 47.3646 138.241 47.5868C138.322 47.8055 138.397 48.0123 138.465 48.2071C138.533 48.4019 138.588 48.5623 138.628 48.6887C138.669 48.6819 138.716 48.6787 138.771 48.6787C138.825 48.6787 138.873 48.6819 138.914 48.6887C138.961 48.5452 139.016 48.3848 139.077 48.2071C139.139 48.0259 139.199 47.8479 139.26 47.6736C139.322 47.4993 139.381 47.337 139.439 47.1866C139.497 47.0328 139.546 46.9048 139.587 46.8023C139.723 47.1406 139.844 47.4634 139.949 47.771C140.055 48.0786 140.152 48.3845 140.24 48.6887C140.257 48.6819 140.277 48.6787 140.301 48.6787H140.373C140.424 48.6787 140.468 48.6819 140.505 48.6887C140.652 48.2854 140.808 47.8823 140.975 47.479C141.145 47.0757 141.326 46.6673 141.52 46.2538C141.462 46.2709 141.412 46.2792 141.367 46.2792C141.327 46.2792 141.272 46.2709 141.204 46.2538C141.146 46.4144 141.083 46.5868 141.015 46.7713C140.951 46.9559 140.886 47.1371 140.822 47.3148C140.757 47.4891 140.694 47.6567 140.633 47.8173C140.575 47.9745 140.524 48.1077 140.48 48.2171C140.358 47.8753 140.24 47.5458 140.128 47.2279C140.016 46.9066 139.917 46.5819 139.832 46.2538C139.805 46.2606 139.781 46.2674 139.761 46.2742C139.74 46.2777 139.716 46.2792 139.689 46.2792C139.648 46.2792 139.597 46.2709 139.536 46.2538C139.488 46.4144 139.434 46.5888 139.373 46.7768C139.312 46.9647 139.251 47.1491 139.19 47.3303C139.128 47.5114 139.068 47.6806 139.011 47.8378C138.953 47.995 138.904 48.1214 138.863 48.2171C138.73 47.8753 138.61 47.5438 138.501 47.2225C138.395 46.8978 138.298 46.5751 138.21 46.2538C138.166 46.2606 138.125 46.2674 138.088 46.2742C138.05 46.2777 138.013 46.2792 137.975 46.2792C137.935 46.2792 137.894 46.2777 137.853 46.2742C137.815 46.2674 137.776 46.2606 137.736 46.2538ZM94.3783 46.3511C94.545 46.3511 94.679 46.4075 94.7811 46.5203C94.8831 46.6331 94.934 46.797 94.934 47.0124C94.934 47.1081 94.9225 47.2005 94.8987 47.2893C94.8783 47.3748 94.844 47.4515 94.7964 47.5199C94.7522 47.5848 94.6946 47.638 94.6232 47.6791C94.5552 47.7167 94.4715 47.7355 94.3728 47.7355C94.1756 47.7355 94.0296 47.6738 93.9344 47.5508C93.8425 47.4244 93.7969 47.2532 93.7969 47.0379C93.7969 46.8294 93.8479 46.6638 93.9499 46.5408C94.052 46.4143 94.1947 46.3511 94.3783 46.3511ZM101.178 46.3511C101.344 46.3511 101.479 46.4075 101.581 46.5203C101.683 46.6331 101.734 46.797 101.734 47.0124C101.734 47.1081 101.722 47.2005 101.698 47.2893C101.677 47.3748 101.644 47.4515 101.596 47.5199C101.552 47.5848 101.494 47.638 101.422 47.6791C101.354 47.7167 101.271 47.7355 101.173 47.7355C100.975 47.7355 100.829 47.6738 100.734 47.5508C100.642 47.4244 100.596 47.2532 100.596 47.0379C100.596 46.8294 100.647 46.6638 100.749 46.5408C100.851 46.4143 100.994 46.3511 101.178 46.3511ZM98.7495 46.3666C98.8821 46.3666 98.9895 46.3954 99.0711 46.4535C99.1528 46.5116 99.2156 46.5852 99.2598 46.674C99.3074 46.7629 99.3381 46.8585 99.3517 46.961C99.3688 47.0635 99.377 47.1611 99.377 47.2534C99.2682 47.2568 99.1561 47.26 99.0405 47.2634C98.9248 47.2668 98.811 47.2689 98.6988 47.2689C98.59 47.2689 98.4777 47.2668 98.3621 47.2634C98.2499 47.26 98.1408 47.2568 98.0353 47.2534C98.0422 47.1611 98.0594 47.0635 98.0866 46.961C98.1171 46.855 98.1598 46.7595 98.2142 46.674C98.272 46.5852 98.3432 46.5116 98.4282 46.4535C98.5166 46.3954 98.6237 46.3666 98.7495 46.3666ZM107.819 46.3666C107.952 46.3666 108.059 46.3954 108.14 46.4535C108.222 46.5116 108.285 46.5852 108.329 46.674C108.377 46.7629 108.408 46.8585 108.421 46.961C108.438 47.0635 108.446 47.1611 108.446 47.2534C108.338 47.2568 108.225 47.26 108.11 47.2634C107.994 47.2668 107.88 47.2689 107.768 47.2689C107.659 47.2689 107.547 47.2668 107.431 47.2634C107.319 47.26 107.21 47.2568 107.105 47.2534C107.112 47.1611 107.129 47.0635 107.156 46.961C107.187 46.855 107.229 46.7595 107.283 46.674C107.341 46.5852 107.413 46.5116 107.498 46.4535C107.586 46.3954 107.693 46.3666 107.819 46.3666ZM136.45 46.3666C136.583 46.3666 136.69 46.3954 136.771 46.4535C136.853 46.5116 136.916 46.5852 136.96 46.674C137.007 46.7629 137.038 46.8585 137.052 46.961C137.069 47.0635 137.078 47.1611 137.078 47.2534C136.969 47.2568 136.857 47.26 136.741 47.2634C136.625 47.2668 136.511 47.2689 136.399 47.2689C136.29 47.2689 136.178 47.2668 136.062 47.2634C135.95 47.26 135.841 47.2568 135.736 47.2534C135.743 47.1611 135.76 47.0635 135.787 46.961C135.818 46.855 135.86 46.7595 135.915 46.674C135.972 46.5852 136.044 46.5116 136.129 46.4535C136.217 46.3954 136.324 46.3666 136.45 46.3666ZM110.395 46.4175C110.64 46.4175 110.825 46.5047 110.951 46.679C111.077 46.8499 111.14 47.0995 111.14 47.4276C111.14 47.5643 111.124 47.7011 111.094 47.8378C111.066 47.9745 111.021 48.0977 110.956 48.2071C110.895 48.313 110.816 48.4002 110.721 48.4686C110.626 48.5335 110.512 48.5659 110.379 48.5659C110.298 48.5659 110.215 48.5503 110.13 48.5195C110.045 48.4888 109.968 48.4344 109.9 48.3558C109.836 48.2738 109.781 48.1658 109.737 48.0325C109.696 47.8992 109.676 47.73 109.676 47.5249C109.676 47.3711 109.689 47.2275 109.717 47.0942C109.747 46.9575 109.791 46.84 109.849 46.7409C109.91 46.6383 109.985 46.5595 110.074 46.5048C110.165 46.4467 110.273 46.4175 110.395 46.4175ZM104.192 47.4121L104.172 48.1812C104.114 48.2769 104.031 48.3609 103.922 48.4326C103.817 48.5044 103.699 48.54 103.57 48.54C103.458 48.54 103.356 48.4992 103.264 48.4172C103.172 48.3352 103.126 48.2136 103.126 48.0529C103.126 47.9572 103.143 47.8788 103.177 47.8173C103.215 47.7558 103.262 47.7046 103.32 47.6636C103.381 47.6226 103.449 47.5902 103.524 47.5663C103.602 47.5424 103.68 47.5236 103.759 47.5099C103.837 47.4928 103.914 47.4772 103.988 47.4635C104.067 47.4499 104.134 47.4327 104.192 47.4121ZM122.05 47.4121L122.03 48.1812C121.972 48.2769 121.889 48.3609 121.78 48.4326C121.675 48.5044 121.557 48.54 121.428 48.54C121.316 48.54 121.214 48.4992 121.122 48.4172C121.03 48.3352 120.984 48.2136 120.984 48.0529C120.984 47.9572 121.001 47.8788 121.035 47.8173C121.073 47.7558 121.121 47.7046 121.178 47.6636C121.24 47.6226 121.308 47.5902 121.382 47.5663C121.461 47.5424 121.539 47.5236 121.617 47.5099C121.695 47.4928 121.771 47.4772 121.846 47.4635C121.924 47.4499 121.993 47.4327 122.05 47.4121ZM94.4394 48.6787C94.7148 48.6787 94.9123 48.7195 95.0312 48.8015C95.1503 48.8835 95.2095 49.0271 95.2095 49.2322C95.2095 49.3484 95.1856 49.4476 95.1381 49.5296C95.0904 49.615 95.0276 49.685 94.9494 49.7397C94.8746 49.7944 94.7879 49.8356 94.6892 49.8629C94.5906 49.8903 94.4904 49.9039 94.3884 49.9039C94.2829 49.9039 94.1842 49.8919 94.0924 49.868C94.0006 49.844 93.9209 49.8064 93.8529 49.7552C93.7883 49.7039 93.7355 49.6371 93.6946 49.5551C93.6572 49.4731 93.6385 49.3743 93.6385 49.2581C93.6385 49.0393 93.7082 48.8869 93.8476 48.8015C93.987 48.7195 94.1844 48.6787 94.4394 48.6787ZM101.239 48.6787C101.515 48.6787 101.712 48.7195 101.831 48.8015C101.95 48.8835 102.009 49.0271 102.009 49.2322C102.009 49.3484 101.985 49.4476 101.938 49.5296C101.89 49.615 101.827 49.685 101.749 49.7397C101.674 49.7944 101.587 49.8356 101.489 49.8629C101.39 49.8903 101.29 49.9039 101.188 49.9039C101.082 49.9039 100.984 49.8919 100.892 49.868C100.8 49.844 100.72 49.8064 100.652 49.7552C100.588 49.7039 100.535 49.6371 100.494 49.5551C100.457 49.4731 100.438 49.3743 100.438 49.2581C100.438 49.0393 100.508 48.8869 100.647 48.8015C100.787 48.7195 100.984 48.6787 101.239 48.6787Z" fill="black"/>
<path d="M65.7802 35.5701C65.7958 35.4766 65.8035 35.3831 65.8035 35.2896C65.8035 35.1961 65.8035 35.1103 65.8035 35.0324C65.8035 34.783 65.788 34.5258 65.7569 34.2609C65.7258 33.9959 65.6793 33.7075 65.6173 33.3958C65.3847 32.2113 64.7178 31.2683 63.6167 30.5669C62.6088 29.9123 61.4767 29.585 60.2205 29.585C58.4216 29.585 56.9794 30.1071 55.8939 31.1514C54.7928 32.2113 54.2422 33.6296 54.2422 35.4065C54.2422 37.4639 54.8625 39.0303 56.1032 40.1058C57.2662 41.1345 58.8868 41.6488 60.9649 41.6488C62.0194 41.6488 62.9964 41.3994 63.8959 40.9006C64.9504 40.3084 65.4777 39.5213 65.4777 38.5393C65.4777 38.025 65.3304 37.6119 65.0357 37.3002C64.7411 36.9885 64.3379 36.8326 63.8261 36.8326C63.6865 36.8326 63.4539 36.895 63.1283 37.0197C63.4384 37.4561 63.5935 37.9081 63.5935 38.3757C63.5935 39.0459 63.3764 39.5836 62.9422 39.9889C62.5079 40.3941 61.9419 40.5967 61.244 40.5967C60.205 40.5967 59.4916 40.1759 59.1039 39.3342C58.8248 38.7575 58.6853 37.8769 58.6853 36.6924V35.5935L65.7802 35.5701ZM61.6163 34.5414H58.7086C58.693 34.4323 58.6853 34.3388 58.6853 34.2609C58.6853 34.1829 58.6853 34.1206 58.6853 34.0738C58.6853 33.8868 58.6853 33.7154 58.6853 33.5595C58.7008 33.388 58.7164 33.2244 58.7319 33.0685C58.8095 32.2892 58.9102 31.7359 59.0343 31.4086C59.298 30.8163 59.7166 30.5201 60.2904 30.5201C61.1744 30.5201 61.6164 31.2137 61.6164 32.6009L61.6163 34.5414Z" fill="#1E656D"/>
<path d="M83.9924 32.9284C83.9924 31.9776 83.7675 31.1905 83.3178 30.567C82.806 29.8812 82.0849 29.5383 81.1545 29.5383C80.6737 29.5383 80.1852 29.6942 79.689 30.0059C79.1306 30.3644 78.8515 30.7774 78.8515 31.245C78.8515 31.3697 78.8824 31.4632 78.9445 31.5256C79.1306 31.4788 79.3245 31.4554 79.5261 31.4554C80.1154 31.4554 80.6194 31.7593 81.0381 32.3672C81.4103 32.9127 81.5964 33.4895 81.5964 34.0973C81.5964 35.0013 81.1234 36.5522 80.1774 38.7498C78.7352 34.1986 78.014 31.6269 78.014 31.0346C78.014 30.7852 78.0606 30.5748 78.1536 30.4033C78.2622 30.1695 78.332 30.0059 78.3631 29.9124L78.2931 29.8422H72.9428C73.5166 30.4657 73.8734 31.0268 74.0129 31.5255C74.1835 32.149 74.3308 32.6633 74.4548 33.0686C74.5944 33.4582 74.703 33.7544 74.7805 33.957C74.8735 34.222 74.92 34.3544 74.92 34.3544C74.92 34.3856 74.4935 35.7339 73.6406 38.3991C72.3845 34.4558 71.7565 32.2425 71.7565 31.7593C71.7565 31.6502 71.7409 31.4944 71.7098 31.2917C71.6943 31.0735 71.6865 30.9099 71.6865 30.8008C71.6865 30.4579 71.7873 30.1305 71.9889 29.8188H66.8945C67.4218 30.7072 67.7474 31.3541 67.8715 31.7593C67.9801 32.149 68.0732 32.4919 68.1507 32.788C68.2283 33.0686 68.2902 33.3102 68.3368 33.5128C68.6935 34.9 68.9881 36.03 69.2207 36.9028C69.4688 37.7757 69.655 38.3991 69.779 38.7732C69.9341 39.3655 70.0272 39.7629 70.0582 39.9655V39.9422C70.0582 40.5968 69.9883 41.0722 69.8487 41.3683L74.6175 41.3917L74.222 40.2461L75.6178 36.178C76.3777 38.516 76.7576 39.8409 76.7576 40.1526C76.7576 40.402 76.711 40.6202 76.618 40.8072C76.5405 40.9942 76.4552 41.1891 76.3622 41.3917H81.1541C80.8129 40.6436 80.6424 40.1915 80.6424 40.0357C80.6424 39.6772 80.9292 39.0459 81.503 38.1419C81.9993 37.3782 82.3792 36.7859 82.6429 36.3651C82.9065 35.9287 83.0694 35.6559 83.1314 35.5468C83.7052 34.5025 83.9924 33.6297 83.9924 32.9284Z" fill="#1E656D"/>
<path d="M111.582 38.0952C111.582 37.5497 111.442 37.0743 111.163 36.669C110.838 36.2482 110.403 36.0378 109.861 36.0378C109.535 36.0378 109.209 36.1313 108.883 36.3183C109.039 36.521 109.155 36.6846 109.232 36.8093C109.31 36.934 109.364 37.0197 109.395 37.0665C109.519 37.347 109.581 37.651 109.581 37.9783C109.581 38.742 109.411 39.3499 109.07 39.8019C108.682 40.3318 108.124 40.5968 107.395 40.5968C106.449 40.5968 105.743 40.0747 105.278 39.0304C104.937 38.2822 104.766 37.3392 104.766 36.2014C104.766 32.6166 105.348 30.8242 106.511 30.8242C106.774 30.8242 107.007 30.9099 107.209 31.0813C107.426 31.2528 107.534 31.4632 107.534 31.7126C107.534 31.9464 107.379 32.2347 107.069 32.5776C107.596 32.9517 108.178 33.1387 108.814 33.1387C109.512 33.1387 110.132 32.8893 110.675 32.3906C111.233 31.9074 111.512 31.3073 111.512 30.5904C111.512 30.4657 111.473 30.2319 111.396 29.889C111.101 30.0604 110.845 30.1462 110.628 30.1462C110.396 30.1462 110.101 30.1227 109.744 30.076C109.403 30.0292 109 29.9668 108.535 29.8889C107.62 29.7019 106.929 29.6084 106.464 29.6084C104.805 29.6084 103.425 30.2085 102.324 31.4086C101.238 32.5932 100.695 34.0349 100.695 35.7338C100.695 37.5418 101.254 38.9914 102.37 40.0824C103.502 41.1735 104.975 41.719 106.79 41.719C108 41.719 109.062 41.4228 109.977 40.8306C111.047 40.1604 111.582 39.2486 111.582 38.0952Z" fill="#1E656D"/>
<path d="M124.588 35.5234C124.588 33.9024 123.999 32.523 122.82 31.3852C121.672 30.2474 120.284 29.6785 118.656 29.6785C117.059 29.6785 115.702 30.2552 114.585 31.4085C113.484 32.5619 112.934 33.9335 112.934 35.5234C112.934 37.2378 113.461 38.6874 114.515 39.8719C115.601 41.0877 116.997 41.6956 118.703 41.6956C120.439 41.6956 121.858 41.1111 122.959 39.9421C124.045 38.7575 124.588 37.2846 124.588 35.5234ZM120.517 34.3778C120.517 34.4557 120.517 34.5414 120.517 34.6349C120.517 34.7129 120.509 34.8142 120.494 34.9389V35.4766C120.494 35.5701 120.494 35.6948 120.494 35.8507C120.509 35.9909 120.517 36.1468 120.517 36.3183C120.517 36.4741 120.517 36.63 120.517 36.7859C120.533 36.9261 120.54 37.043 120.54 37.1366C120.54 39.5524 119.99 40.7604 118.889 40.7604C117.601 40.7604 116.958 39.4277 116.958 36.7625C116.958 36.6845 116.958 36.591 116.958 36.4819C116.958 36.3728 116.966 36.2403 116.981 36.0845V35.3831C116.981 32.2191 117.54 30.637 118.656 30.637C119.897 30.637 120.517 31.8839 120.517 34.3778Z" fill="#1E656D"/>
<path d="M138.101 41.3683C137.683 40.9008 137.473 40.2851 137.473 39.5214V29.8188H133.054C133.41 30.3176 133.589 31.0424 133.589 31.9931V37.9316C133.589 38.3836 133.403 38.82 133.03 39.2408C132.674 39.6617 132.27 39.8721 131.821 39.8721C131.371 39.8721 131.03 39.685 130.797 39.311C130.58 38.9681 130.472 38.5706 130.472 38.1186V30.9644L130.495 30.0994V29.889V29.8423V29.8189H126.191C126.533 30.3021 126.703 31.0424 126.703 32.04V37.8615C126.703 39.4201 127.378 40.5346 128.727 41.2048C129.13 41.4074 129.549 41.5087 129.983 41.5087C130.696 41.5087 131.332 41.3996 131.891 41.1814C132.108 41.0879 132.348 40.9554 132.612 40.7839C132.891 40.6125 133.201 40.402 133.542 40.1527C133.527 40.7294 133.527 41.1346 133.542 41.3684H134.263L138.101 41.3683Z" fill="#1E656D"/>
<path d="M145.638 39.0069C145.08 39.1628 144.817 39.2407 144.848 39.2407C144.196 39.2407 143.871 38.9757 143.871 38.4458C143.871 38.3679 143.878 38.2588 143.894 38.1185C143.909 37.9782 143.917 37.8769 143.917 37.8146V31.0345H145.592V29.8187H143.917V29.1875C143.917 28.5952 144.026 27.9718 144.243 27.3171C144.522 26.5222 144.894 26.0546 145.359 25.9144L145.406 25.5403H145.011H144.801C144.476 25.5403 144.072 25.6806 143.592 25.9611C143.126 26.2261 142.762 26.4989 142.498 26.7794C142.049 27.2626 141.529 27.9951 140.94 28.9771C140.862 29.1329 140.754 29.2888 140.614 29.4447C140.474 29.585 140.319 29.7408 140.149 29.9123C139.978 30.037 139.815 30.1694 139.66 30.3097C139.505 30.45 139.35 30.5825 139.195 30.7072L139.172 30.9877C139.249 30.9877 139.358 30.9799 139.498 30.9644C139.637 30.9488 139.746 30.941 139.823 30.941C139.932 30.941 140.009 30.9488 140.056 30.9644V31.1982L140.102 38.703C140.102 39.1082 140.133 39.3966 140.195 39.568C140.397 40.1915 140.746 40.6902 141.242 41.0643C141.754 41.4228 142.343 41.6021 143.01 41.6021C143.817 41.6021 144.445 41.3839 144.894 40.9474C145.344 40.511 145.592 39.8642 145.638 39.0069Z" fill="#1E656D"/>
<path d="M53.1943 26.0461H50.3414C50.6481 26.4006 50.8934 26.9633 51.0775 27.7341C51.1088 27.842 51.1356 27.9329 51.1595 28.0301C51.1745 28.1071 51.1804 28.1323 51.1923 28.2428C51.1774 30.0619 51.1701 31.4724 51.1701 32.4745V34.2781C50.8174 33.5227 50.2959 32.7519 49.6056 31.9657C49.4062 31.7499 49.1376 31.4801 48.8002 31.1564C48.4781 30.8327 48.0795 30.4473 47.604 30.0002C46.8831 29.3219 46.4078 28.844 46.1777 28.5665C45.5796 27.842 45.1348 26.9941 44.8433 26.0229H40.2188C40.7556 26.9171 41.0238 27.5414 41.0238 27.896V38.9028C41.0238 39.242 40.7937 40.0205 40.3336 41.2383H43.0024C42.4503 40.1592 42.1744 39.3807 42.1744 38.9028V29.769C42.5119 30.7247 43.0948 31.6882 43.923 32.6594C44.1378 32.9061 44.4366 33.2298 44.8199 33.6306C45.2188 34.0314 45.7097 34.5171 46.2925 35.0874C46.814 35.5807 47.2664 36.0355 47.6499 36.4517C48.0333 36.8679 48.3478 37.2379 48.5931 37.5616C48.7619 37.8083 48.9384 38.0781 49.1225 38.371C49.3067 38.6639 49.4905 38.9876 49.6745 39.3422C49.782 39.558 49.9048 39.8278 50.0428 40.1515C50.1802 40.4598 50.3417 40.8298 50.5259 41.2614H52.2974L52.3765 32.9218L52.3762 32.4478C52.3759 32.2323 52.3762 31.8325 52.3762 31.5088V30.3362C52.376 30.2068 52.3579 28.2318 52.4207 27.9697C52.4968 27.5689 52.7276 26.9248 53.2031 26.0461H53.1943Z" fill="#236067"/>
<path d="M40.2148 26.0154L40.4369 26.3886C40.4369 26.3886 40.5532 26.6019 40.6199 26.7231C40.6871 26.8444 40.773 27.0456 40.773 27.0456C40.773 27.0456 40.852 27.2193 40.8744 27.2814C40.8983 27.3435 40.9418 27.466 40.9583 27.5218C40.9732 27.5776 40.9745 27.5808 40.9834 27.6195C40.9983 27.6584 41 27.6599 41.0089 27.7328C41.0239 27.8058 41.0239 27.8026 41.0239 27.8569V28.0152V28.42V29.0359V29.6409V30.7578V36.848V38.8864C41.0239 38.964 40.9956 39.1966 40.9747 39.2866C40.9523 39.3766 40.8077 39.8761 40.8077 39.8761C40.8077 39.8761 40.7211 40.1553 40.6972 40.2205C40.6733 40.2856 40.506 40.7851 40.469 40.8751C40.4316 40.9651 40.3359 41.2319 40.3359 41.2319L41.3918 41.2379H43L42.9417 41.123L42.7163 40.6639C42.7163 40.6639 42.494 40.1612 42.4538 40.0527C42.4135 39.9441 42.2997 39.64 42.2657 39.5004C42.2313 39.3609 42.2104 39.2894 42.1909 39.1499C42.173 39.0103 42.176 39.0412 42.176 39.004V38.6875V37.3255V36.131V34.5426V32.1722V29.7585C42.176 29.7585 41.8955 29.2049 41.3892 28.1748C40.8829 27.1448 40.2181 26.0151 40.2181 26.0151L40.2148 26.0154Z" fill="url(#paint0_linear_1553_1933)"/>
<path d="M50.5244 41.2623L50.3811 40.9216C50.3811 40.9216 50.3272 40.8009 50.2928 40.7159C50.2615 40.6392 50.2465 40.6018 50.2465 40.6018C50.2465 40.6018 50.2317 40.5605 50.1973 40.5005C50.163 40.4322 50.1554 40.4014 50.124 40.3346C50.1001 40.2741 50.0883 40.257 50.0405 40.1422C49.9957 40.048 49.9493 39.9237 49.871 39.7578L49.6843 39.3581L49.4608 38.9407L49.1641 38.4361L49.5644 38.0423C49.7078 37.8906 49.9311 37.6793 50.0522 37.5267C50.0522 37.5267 50.4179 37.0776 50.5608 36.8346C50.6878 36.6177 50.8652 36.158 50.9203 35.9818C51.0144 35.679 51.1564 35.1484 51.1671 34.5426C51.1866 33.4592 51.1821 30.3786 51.1821 30.3786L51.197 28.6944V28.4912V28.3067C51.197 28.191 51.1821 28.0916 51.1507 27.9664C51.1328 27.9006 51.0998 27.7923 51.0818 27.7231C51.0639 27.6563 51.0355 27.5417 51.0206 27.4849C50.9892 27.384 50.928 27.1785 50.8788 27.0234C50.8638 26.9836 50.8042 26.828 50.7654 26.7376C50.731 26.6556 50.6145 26.4373 50.5893 26.3867C50.531 26.27 50.3486 26.0459 50.3486 26.0459L51.6112 26.0474L53.21 26.0459L53.0846 26.2863L52.9562 26.5391C52.9562 26.5391 52.8919 26.6732 52.8516 26.7616C52.7799 26.9148 52.6873 27.1263 52.6598 27.2C52.6195 27.3094 52.5039 27.6557 52.4822 27.7429C52.4643 27.8169 52.4269 27.9865 52.4075 28.1261C52.3926 28.2163 52.3703 29.3845 52.3703 29.9184V31.1129V32.7189L52.3524 35.0717L52.324 37.4753C52.324 37.4753 52.324 38.0556 52.3091 39.2079V41.2628L50.5244 41.2623Z" fill="url(#paint1_linear_1553_1933)"/>
<path d="M91.6887 27.1306L91.3503 27.1476C91.3503 27.1476 91.2974 27.1513 91.1 27.1808C90.9093 27.2094 90.8555 27.2244 90.7739 27.2503C90.6923 27.2762 90.6421 27.2856 90.4704 27.3633C90.2987 27.441 90.1456 27.5181 90.064 27.5742C89.9824 27.6303 89.8251 27.7732 89.7607 27.8422C89.6961 27.9112 89.6041 28.0234 89.5655 28.1227C89.5265 28.2219 89.486 28.3039 89.4645 28.3773C89.4432 28.4506 89.4263 28.5757 89.4263 28.675C89.4263 28.7742 89.4433 28.9262 89.4697 29.0633C89.4851 29.1428 89.5292 29.2559 89.5764 29.3562C89.6072 29.4217 89.6447 29.4842 89.6692 29.5237C89.7008 29.5741 89.7301 29.6133 89.7612 29.6532C89.7899 29.6898 89.8273 29.727 89.8525 29.7539C90.0067 29.918 90.0063 29.909 90.0921 29.9823C90.178 30.0557 90.3112 30.1432 90.4014 30.1993C90.4915 30.2554 90.6417 30.3362 90.7232 30.375C90.8048 30.4138 91.0281 30.5044 91.1054 30.5389C91.1826 30.5735 91.6247 30.7115 91.6247 30.7115C91.6247 30.7115 91.2041 30.595 90.9681 30.513C90.7319 30.4311 90.3798 30.2973 90.2682 30.2412C90.1566 30.1851 89.9677 30.0772 89.8175 29.9435C89.6673 29.8097 89.5726 29.7493 89.4267 29.5163C89.2807 29.2833 89.1907 29.3653 89.0834 29.0374C88.976 28.7095 89.0187 28.524 89.0275 28.2219C89.0363 27.9199 89.0576 27.6826 89.1521 27.4712C89.2465 27.2597 89.3667 26.962 89.4183 26.8757C89.4697 26.7894 89.5692 26.5575 89.5692 26.5575L89.6936 26.5103C89.6936 26.5103 90.0064 26.3974 90.0534 26.3821C90.1004 26.3669 90.3114 26.3028 90.3706 26.2891C90.43 26.2754 90.6589 26.2219 90.7151 26.2112C90.7709 26.2005 90.8077 26.1929 91.093 26.1502C91.3784 26.1075 91.7547 26.0831 91.9976 26.077C92.2404 26.0711 92.6532 26.077 92.9447 26.1076C93.2361 26.138 93.3151 26.135 93.4153 26.1503C93.5154 26.1655 93.7827 26.2083 93.9466 26.2357C94.1105 26.2632 94.4353 26.3181 94.5931 26.3455C94.7509 26.373 95.1621 26.4443 95.3295 26.4745C95.4969 26.5047 95.7159 26.5435 95.9091 26.5651C96.1023 26.5866 96.1838 26.5996 96.3083 26.6039C96.4328 26.6083 96.6731 26.6211 96.7976 26.6039C96.9221 26.5867 97.3471 26.5521 97.5833 26.5047C97.8194 26.4572 98.3218 26.3752 98.4119 26.3623C98.5021 26.3494 98.5277 26.3364 98.5621 26.3451C98.5966 26.3536 98.618 26.3666 98.6349 26.3839C98.6518 26.4011 98.6561 26.4098 98.6605 26.4444C98.6679 26.4789 98.6532 26.7593 98.6437 26.8456C98.6312 26.9319 98.5923 27.1606 98.5664 27.2598C98.5407 27.3591 98.5405 27.4238 98.4847 27.5705C98.4289 27.7172 98.3604 27.8682 98.3174 27.9631C98.2741 28.0581 98.1843 28.2177 98.1285 28.3126C98.0726 28.4076 97.888 28.6751 97.7893 28.7916C97.6905 28.9081 97.5746 29.0289 97.4716 29.1281C97.3685 29.2274 97.2055 29.3654 97.0896 29.4431C96.9737 29.5208 96.7847 29.62 96.643 29.6804C96.5013 29.7409 96.2825 29.8098 96.1665 29.8271C96.0506 29.8443 95.9433 29.8616 95.7673 29.8616C95.5913 29.8616 95.4024 29.8616 95.2307 29.8444C95.059 29.8272 94.8228 29.7797 94.6897 29.7452C94.5566 29.7107 94.415 29.6761 94.3077 29.6114C94.2003 29.5467 94.1703 29.5295 94.063 29.4259C93.9557 29.3223 93.9384 29.2749 93.9384 29.2749C93.9384 29.2749 93.9472 29.0807 93.9384 28.8909C93.9296 28.701 93.9215 28.6234 93.8995 28.5112C93.8782 28.399 93.8137 28.179 93.7751 28.1013C93.7361 28.0236 93.6506 27.8985 93.6076 27.8381C93.5643 27.7777 93.5175 27.7129 93.4531 27.6525C93.3885 27.5921 93.2469 27.4843 93.1654 27.4411C93.0838 27.398 92.9378 27.3246 92.8391 27.2901C92.7403 27.2556 92.4699 27.1866 92.3454 27.1693C92.2209 27.1521 91.8519 27.1262 91.6887 27.1306Z" fill="url(#paint2_linear_1553_1933)"/>
<path d="M96.743 38.1934C96.743 38.1934 96.7688 38.366 96.7086 38.5904C96.6484 38.8147 96.5539 39.0046 96.4251 39.1772C96.2963 39.3498 96.1589 39.4965 96.0644 39.5741C95.97 39.6518 95.8327 39.7381 95.7125 39.7899C95.5923 39.8416 95.4464 39.9107 95.3004 39.9366C95.1544 39.9625 95.0514 39.9883 94.871 39.997C94.6908 40.0055 94.3989 39.9625 94.2271 39.9107C94.0554 39.8589 93.6175 39.6518 93.4028 39.531C93.1882 39.4102 92.7246 39.0564 92.6044 38.9614C92.4842 38.8665 91.4022 38.1071 91.2476 37.9949C91.0931 37.8828 90.5522 37.5376 90.3633 37.4427C90.1744 37.3477 89.9941 37.2614 89.8311 37.1837C89.6679 37.1061 89.3158 36.9939 89.1441 36.9594C88.9723 36.9248 88.6462 36.8731 88.4659 36.8904C88.2856 36.9076 87.9764 36.9508 87.7617 37.0199C87.5471 37.0889 87.3153 37.2097 87.2037 37.2874C87.0921 37.365 86.8602 37.5376 86.7143 37.7102C86.5683 37.8828 86.4052 38.1071 86.3365 38.2366C86.2675 38.366 86.1391 38.6163 86.1134 38.7975C86.0877 38.9787 86.0274 39.1427 86.0531 39.4016C86.0788 39.6605 86.0788 39.6346 86.1304 39.8072C86.1818 39.9798 86.2591 40.2128 86.3536 40.3767C86.448 40.5407 86.5253 40.6615 86.6626 40.7737C86.8 40.8859 86.9375 40.9463 86.9375 40.9463C86.9375 40.9463 86.9632 40.8772 87.0405 40.7823C87.1178 40.6874 87.1435 40.6356 87.2551 40.5321C87.3667 40.4285 87.4526 40.3336 87.5728 40.2645C87.693 40.1955 87.7789 40.161 87.9249 40.1178C88.0709 40.0747 88.2511 40.0488 88.4229 40.0488C88.5946 40.0488 89.1097 40.1092 89.3158 40.1609C89.5219 40.2127 89.7537 40.2731 89.9684 40.3249C90.1831 40.3767 91.2305 40.7391 91.488 40.7995C91.7456 40.86 92.3037 41.0239 92.4927 41.0584C92.6815 41.0929 93.0165 41.162 93.2483 41.1879C93.4801 41.2138 93.7804 41.1879 94.0037 41.1793C94.227 41.1707 94.4847 41.1534 94.7165 41.1016C94.9483 41.0498 95.2487 40.9722 95.472 40.9032C95.6952 40.8341 96.0902 40.6788 96.279 40.5839C96.468 40.4889 97.0519 40.1179 97.1463 40.0488C97.2408 39.9798 96.743 38.1934 96.743 38.1934Z" fill="url(#paint3_linear_1553_1933)"/>
<path d="M89.2865 27.1726C89.0885 27.6927 88.9905 27.9568 89.0538 28.493C89.1155 29.0161 89.3453 29.5125 89.7553 29.8746C89.9785 30.0644 90.1845 30.2197 90.5966 30.3751C91.0087 30.5304 91.5582 30.703 91.9703 30.8065C92.3825 30.9101 93.8765 31.2898 94.426 31.4279C94.9755 31.5659 95.3704 31.6609 95.5507 31.7126C95.7311 31.7644 96.3235 31.937 96.5209 32.006C96.7184 32.0751 96.7014 32.075 96.8902 32.1786C97.0792 32.2822 97.2337 32.3426 97.4227 32.4893C97.6115 32.636 97.6802 32.6533 97.809 32.7654C97.9378 32.8776 98.0922 33.0243 98.2812 33.2487C98.47 33.4731 98.5301 33.5421 98.6589 33.7665C98.7877 33.9908 98.8736 34.1634 98.9509 34.3619C99.0282 34.5604 99.0626 34.6898 99.1141 34.9142C99.1655 35.1385 99.183 35.268 99.2084 35.501C99.2341 35.734 99.2686 36.4502 99.1827 36.8472C99.0968 37.2442 99.1136 37.4167 98.9079 37.8827C98.7018 38.3487 98.42 38.7906 98.1482 39.1168C97.864 39.4577 97.3451 39.9117 97.181 40.0203C97.0407 40.1132 96.7902 38.67 96.7348 38.0311C96.7245 37.9093 96.6798 37.7113 96.6762 37.6987C96.6593 37.645 96.6151 37.4968 96.5543 37.3688C96.4763 37.2053 96.4155 37.1431 96.3257 37.0166C96.1633 36.7879 95.9372 36.6228 95.7311 36.4675C95.525 36.3122 95.3042 36.2119 95.0082 36.0827C94.8667 36.021 92.3584 35.3385 91.8877 35.2269C91.601 35.159 91.1674 35.065 90.6764 34.9564C90.3529 34.8848 89.5679 34.6636 89.3996 34.603C89.2712 34.5569 88.8233 34.3274 88.7472 34.2904C88.5817 34.2098 88.148 33.8712 87.9692 33.706C87.7823 33.5334 87.6864 33.4541 87.4631 33.178C87.2399 32.9019 86.9737 32.4402 86.9051 32.2331C86.836 32.026 86.7232 31.7818 86.6647 31.3356C86.6089 30.9084 86.6045 30.705 86.6016 30.5532C86.6016 30.4389 86.611 30.2631 86.6272 30.122C86.6463 29.9506 86.6764 29.6942 86.7075 29.5717C86.7736 29.3111 86.8384 29.1183 86.9655 28.8633C87.1887 28.4145 87.4302 28.0817 87.8473 27.6644C88.0518 27.4598 88.416 27.2158 88.755 26.9987C89.1601 26.7392 89.5798 26.5552 89.5798 26.5552L89.2865 27.1726Z" fill="#236067"/>
<defs>
<linearGradient id="paint0_linear_1553_1933" x1="1179.24" y1="364.959" x2="1179.3" y2="383.788" gradientUnits="userSpaceOnUse">
<stop offset="0.308824" stop-color="#0C747F"/>
<stop offset="1" stop-color="#0D94A4"/>
</linearGradient>
<linearGradient id="paint1_linear_1553_1933" x1="1197.43" y1="357.893" x2="1197.74" y2="384.316" gradientUnits="userSpaceOnUse">
<stop stop-color="#0D94A3"/>
<stop offset="0.754902" stop-color="#0C747F"/>
</linearGradient>
<linearGradient id="paint2_linear_1553_1933" x1="1206.9" y1="361.902" x2="1224.67" y2="361.902" gradientUnits="userSpaceOnUse">
<stop offset="0.259804" stop-color="#0C747F"/>
<stop offset="1" stop-color="#0D98A8"/>
</linearGradient>
<linearGradient id="paint3_linear_1553_1933" x1="1201.44" y1="381.509" x2="1221.9" y2="381.509" gradientUnits="userSpaceOnUse">
<stop stop-color="#0D98A8"/>
<stop offset="0.664216" stop-color="#0C747F"/>
</linearGradient>
</defs>
</svg>
